<svg xmlns="http://www.w3.org/2000/svg" viewBox="0 0 223.91 167.13"><defs><style>.cls-1{fill:#fff;stroke:#fff;stroke-miterlimit:10;}</style></defs><g id="Layer_2" data-name="Layer 2"><g id="Layer_1-2" data-name="Layer 1"><path class="cls-1" d="M16.93,12.55a9.15,9.15,0,0,1,2.74,6.75,9.18,9.18,0,0,1-2.74,6.76,9.61,9.61,0,0,1-6.75,2.74,9.81,9.81,0,0,1-6.94-2.74A9.18,9.18,0,0,1,.5,19.3a9.15,9.15,0,0,1,2.74-6.75,9.46,9.46,0,0,1,6.94-2.92A9.27,9.27,0,0,1,16.93,12.55ZM223.41,113.69q0,8.2-8.58,14.24-8.22,5.65-23.18,8.4-31.77,5.85-76.68-2.93T38.29,106.57Q6.52,88.5,6.52,71.52q0-10.23,12.6-16.62,12.22-6.19,33.59-7.85a25.47,25.47,0,0,0-4.56,8.4Q22.23,60.57,22.23,74.62q0,14.41,27.2,29.94,27,15.51,65.54,23,38.34,7.5,65.54,2.56,13-2.37,19.9-7.3,7.29-5.11,7.3-12.24,0-12-19.9-25.37a32.72,32.72,0,0,0-.73-9.13Q223.41,95.43,223.41,113.69ZM25.15,130.48a9.27,9.27,0,0,1,0,13.51,8.9,8.9,0,0,1-6.76,2.92A8.86,8.86,0,0,1,11.64,144a9.27,9.27,0,0,1,0-13.51,8.89,8.89,0,0,1,6.75-2.92A8.93,8.93,0,0,1,25.15,130.48ZM53.81,3.24a4.24,4.24,0,0,1,1.28,3.1,4.24,4.24,0,0,1-1.28,3.11,4.43,4.43,0,0,1-6.21,0,4.24,4.24,0,0,1-1.28-3.11,4.24,4.24,0,0,1,1.28-3.1,4,4,0,0,1,6.21,0Zm62.25,17.34h1.65l.54.18H121l.55.19h1.64a7,7,0,0,0,1.65.18l.54.18h1.1l.55.18a3.47,3.47,0,0,1,1.09.19h.55a5.62,5.62,0,0,0,1.1.36h.36c.61.12,1.16.25,1.64.37H132c.48.12.91.24,1.27.36l.55.19a3.07,3.07,0,0,0,.92.18l.73.18a6.52,6.52,0,0,0,.91.37l.55.18a2.85,2.85,0,0,1,1.09.36h.37a6.5,6.5,0,0,0,1.46.55l.54.18a9.17,9.17,0,0,1,.92.37l.55.18a6.52,6.52,0,0,0,.91.37l.55.36a6.52,6.52,0,0,0,.91.37l.55.18a14,14,0,0,1,1.27.73l.55.18a7.72,7.72,0,0,0,.91.37l.55.36.73.37.73.36a2,2,0,0,0,.73.37c.25.24.43.36.55.36a9.16,9.16,0,0,1,.91.55l.55.37,1.1.73.54.36.74.37.54.36.73.55.55.36a4.71,4.71,0,0,0,.73.55l.55.37a6.74,6.74,0,0,1,1.09.91l.55.37c.37.24.55.42.55.54l.55.55.73.37.55.54c.11.13.3.31.54.55l.55.55c.12,0,.3.12.55.36l1.09,1.1c.37.36.49.49.37.36.24.25.48.49.73.73l.36.37.73.73.37.37a5.47,5.47,0,0,0,.55.73l.36.36a8.51,8.51,0,0,1,1.28,1.64l.18.19c.12.12.37.36.73.73l.19.36.73.73.18.37a4.71,4.71,0,0,0,.55.73l.36.54a5.11,5.11,0,0,0,.55.74l.18.36c.49.61.91,1.16,1.28,1.64l.18.37a7.56,7.56,0,0,0,.55.91l.18.37a2.55,2.55,0,0,1,.55.73l.18.36a8.44,8.44,0,0,1,.55.91l.18.37a26.11,26.11,0,0,1,1.65,3.1l.18.37a2.21,2.21,0,0,0,.55.91v.37a4.6,4.6,0,0,1,.54,1.09l.19.18c.48,1.22.91,2.38,1.27,3.47l.19.18.36,1.1.18.36c.12.37.25.73.37,1.1v.36q.92,2.75,1.64,5.85c.49,2.55,1,5.54,1.46,8.94.12,1.58.25,3.23.37,4.93v2.92l-.18.55v3.47l-.19.18a66.6,66.6,0,0,1-8.94,29.21q-25.38,3.66-60.07-3.1-37.43-7.31-63.71-22.27c-1.71-1-3.47-2.07-5.3-3.29q-.18-3.11-.18-6A69.42,69.42,0,0,1,53.44,60.2,4.35,4.35,0,0,0,54,59.1,4.3,4.3,0,0,1,54.54,58c.61-1.22,1.28-2.44,2-3.65l.18-.37q2.91-5.48,5.11-7.3c1.1-1.22,2.19-2.44,3.29-3.65l.18-.18a3.32,3.32,0,0,1,.91-.92l.19-.36L67,41l.19-.18a3.46,3.46,0,0,0,.91-.92l.18-.18.55-.55L69,39a5.09,5.09,0,0,0,.91-.73l.37-.36.55-.37.18-.18.55-.55.55-.55h.18l.55-.36.18-.18.55-.55.73-.55.54-.37.19-.18.54-.36a2.85,2.85,0,0,1,.73-.55l.55-.37.37-.18.55-.36.36-.37a2.14,2.14,0,0,0,.91-.55l.37-.18.55-.36.36-.19a2.3,2.3,0,0,1,.91-.54l.37-.19.55-.36.54-.37a7.39,7.39,0,0,1,.92-.36l.36-.18.55-.37.37-.18a2.27,2.27,0,0,0,.91-.55l.55-.18.54-.19.55-.36.37-.18a7.72,7.72,0,0,0,.91-.37l.55-.18.54-.18.37-.19,1.09-.36.37-.18.55-.19.55-.36a3.07,3.07,0,0,0,.91-.18l.36-.19.73-.18.37-.18a3,3,0,0,1,.91-.18l.55-.19.73-.18.36-.18a3.07,3.07,0,0,1,.92-.18l.36-.19a2.1,2.1,0,0,1,.92-.18l.36-.18a2,2,0,0,0,.91-.18h.37a3.47,3.47,0,0,1,1.09-.19l.19-.18a2.08,2.08,0,0,0,.91-.18H104a3.27,3.27,0,0,0,1.1-.19h.36a3.42,3.42,0,0,1,.92-.18h.36a3.52,3.52,0,0,1,1.1-.18h.36a2.1,2.1,0,0,1,.92-.18h.18a3.87,3.87,0,0,0,1.28-.19h2.92a2.72,2.72,0,0,1,1.09-.18h1.46ZM61.66,139.06a6,6,0,0,1,1.82,4.39,6.23,6.23,0,0,1-6,6,6,6,0,0,1-4.38-1.82,5.39,5.39,0,0,1-1.83-4.2,6,6,0,0,1,1.83-4.39,6.32,6.32,0,0,1,4.38-1.64A5.72,5.72,0,0,1,61.66,139.06Zm52.21.37a286.37,286.37,0,0,1-59.51-18.07A69.5,69.5,0,0,0,158.6,144.72,287.11,287.11,0,0,1,113.87,139.43Zm-21,24.1q0,3.1-3.11,3.1t-3.1-3.1c0-1.94,1-2.92,3.1-2.92S92.88,161.59,92.88,163.53ZM99.63,2a4.24,4.24,0,0,1,1.28,3.1,4.24,4.24,0,0,1-1.28,3.11,4.39,4.39,0,0,1-6.2,0A4,4,0,0,1,92,5.06,4,4,0,0,1,93.43,2a4,4,0,0,1,6.2,0Z"/></g></g></svg>