<svg xmlns="http://www.w3.org/2000/svg" viewBox="0 0 500 500"><defs><style>.cls-1{fill:#fff;}</style></defs><g id="Layer_2" data-name="Layer 2"><g id="Layer_1-2" data-name="Layer 1"><rect width="500" height="500"/><path class="cls-1" d="M169.23,176.24a12.79,12.79,0,0,0,9-3.67,13,13,0,0,0,0-18.07,12.43,12.43,0,0,0-9-3.91A12.71,12.71,0,0,0,160,154.5a13,13,0,0,0,0,18.07A13.09,13.09,0,0,0,169.23,176.24Z"/><path class="cls-1" d="M284.76,150.35a5.88,5.88,0,0,0,4.15-10,5.88,5.88,0,1,0-8.3,8.31A5.63,5.63,0,0,0,284.76,150.35Z"/><path class="cls-1" d="M180.22,308.36a13.37,13.37,0,1,0,9,3.91A11.9,11.9,0,0,0,180.22,308.36Z"/><path class="cls-1" d="M223.45,152.06a5.88,5.88,0,0,0,4.16-10,5.4,5.4,0,0,0-8.31,0,5.87,5.87,0,0,0,4.15,10Z"/><path class="cls-1" d="M228.34,300.06A93,93,0,0,0,367.8,331.32,383.44,383.44,0,0,1,308,324.24Q264.24,315.69,228.34,300.06Z"/><path class="cls-1" d="M275.72,352.57c-2.77,0-4.15,1.31-4.15,3.91q0,4.15,4.15,4.15t4.15-4.15C279.87,353.88,278.49,352.57,275.72,352.57Z"/><path class="cls-1" d="M232.49,321.55a8.47,8.47,0,0,0-5.86,2.2,8,8,0,0,0-2.44,5.86,7.21,7.21,0,0,0,2.44,5.62,8,8,0,0,0,5.86,2.44,8.35,8.35,0,0,0,8.06-8.06,8,8,0,0,0-2.44-5.86A7.64,7.64,0,0,0,232.49,321.55Z"/><path class="cls-1" d="M281.75,216.11c-2.39-2.51-5.69-3.76-9.93-3.76H229.17a4.49,4.49,0,0,0-3.3,1.36,4.09,4.09,0,0,0-1.31,2.83v17.91h47.26q6.26,0,9.83-3.15a10.74,10.74,0,0,0,3.3-7.9A9.11,9.11,0,0,0,281.75,216.11Z"/><path class="cls-1" d="M116.74,212.35H74.09a4.33,4.33,0,0,0-3.25,1.36,4.49,4.49,0,0,0-1.36,3.3v47h47.26A13.35,13.35,0,0,0,130,250.77V225.66a12.82,12.82,0,0,0-3.91-9.41A12.67,12.67,0,0,0,116.74,212.35Z"/><path class="cls-1" d="M405.9,239.49c1,5.22,1.3,9.28,1,12.21q26.63,17.83,26.63,33.95,0,9.53-9.77,16.36-9.28,6.6-26.63,9.77-36.39,6.6-87.68-3.42-46.83-9.09-80.94-27.08h18.9q28,12.09,63.51,19,46.39,9,80.35,4.16a89.15,89.15,0,0,0,12-39.08l.25-.25v-4.64l.24-.73v-3.91c-.16-2.28-.33-4.47-.49-6.59-.65-4.55-1.31-8.55-1.95-12-.65-2.77-1.39-5.37-2.2-7.81V229l-.49-1.47-.24-.49c-.17-.48-.33-1-.49-1.46l-.25-.25q-.73-2.19-1.71-4.64l-.24-.24a6.23,6.23,0,0,0-.73-1.46v-.49a3,3,0,0,1-.74-1.22l-.24-.49a32,32,0,0,0-2.2-4.15l-.24-.49a12.45,12.45,0,0,0-.74-1.22l-.24-.49a3.89,3.89,0,0,0-.73-1l-.25-.49a9.67,9.67,0,0,1-.73-1.22l-.24-.49c-.49-.64-1.07-1.38-1.71-2.19l-.25-.49a7.79,7.79,0,0,1-.73-1l-.49-.73a6.89,6.89,0,0,1-.73-1l-.25-.49c-.32-.32-.65-.64-1-1l-.25-.49-1-1-.25-.24a11.26,11.26,0,0,0-1.71-2.2l-.49-.49a7.79,7.79,0,0,1-.73-1l-.49-.49c-.33-.32-.65-.64-1-1l-.49-.49-1-1c.16.17,0,0-.49-.49l-1.46-1.46c-.33-.33-.58-.49-.74-.49l-.73-.73-.73-.74-.73-.73-1-.49-.73-.73c0-.16-.25-.4-.74-.73L368,185a10.37,10.37,0,0,0-1.46-1.22l-.74-.49a7.46,7.46,0,0,1-1-.73l-.74-.49-1-.73-.74-.49-1-.49-.74-.49-1.46-1-.73-.48a12.42,12.42,0,0,0-1.23-.74c-.16,0-.4-.16-.73-.49a2.5,2.5,0,0,1-1-.48l-1-.49-1-.49-.73-.49a9,9,0,0,1-1.22-.49l-.74-.24a15.29,15.29,0,0,0-1.71-1l-.73-.24a9.6,9.6,0,0,1-1.22-.49l-.73-.49a9,9,0,0,1-1.22-.49l-.74-.24a9,9,0,0,0-1.22-.49l-.73-.25a8.91,8.91,0,0,1-1.95-.73h-.49a3.84,3.84,0,0,0-1.47-.49l-.73-.24a9,9,0,0,1-1.22-.49l-1-.24a4.12,4.12,0,0,1-1.22-.25l-.73-.24c-.49-.16-1.06-.33-1.71-.49h-.25c-.65-.16-1.38-.33-2.19-.49h-.49a7.76,7.76,0,0,1-1.47-.49H327a4.71,4.71,0,0,0-1.47-.24l-.73-.25h-1.46l-.74-.24a8.62,8.62,0,0,1-2.19-.25h-2.2l-.74-.24h-3.66l-.73-.24h-4.15a3.46,3.46,0,0,0-1.47.24h-3.91a5.52,5.52,0,0,1-1.71.24h-.24a2.73,2.73,0,0,0-1.22.25h-.49a4.71,4.71,0,0,0-1.47.24H298a4.17,4.17,0,0,0-1.23.25h-.48a4.71,4.71,0,0,1-1.47.24h-.49a2.76,2.76,0,0,1-1.22.25l-.24.24a5,5,0,0,0-1.47.24h-.49a2.63,2.63,0,0,1-1.22.25l-.49.24a2.76,2.76,0,0,0-1.22.25l-.49.24a4.12,4.12,0,0,0-1.22.25l-.49.24-1,.24-.74.25a4.11,4.11,0,0,0-1.22.24l-.49.25-1,.24-.49.25a4.11,4.11,0,0,1-1.22.24l-.73.49-.74.24-.49.25-1.46.49-.49.24-.73.24-.73.25a9.81,9.81,0,0,1-1.23.49l-.48.24-.74.49-.73.24-.73.25a3.06,3.06,0,0,1-1.22.73l-.49.24-.74.49-.48.25a9,9,0,0,0-1.22.49l-.74.48-.73.49-.49.25a3,3,0,0,0-1.22.73l-.49.24-.73.49-.49.25a3,3,0,0,1-1.22.73l-.49.49-.73.49-.49.24-.73.49a3.89,3.89,0,0,0-1,.73l-.73.49-.25.24-.73.49-1,.74-.73.73-.24.24-.74.49H252l-.73.73-.74.74-.24.24-.73.49-.49.49a7.54,7.54,0,0,1-1.22,1l-.25.25-.73.73-.24.25a4.72,4.72,0,0,1-1.22,1.22l-.25.24-.73.73-.25.49A4.57,4.57,0,0,0,243,195l-.24.25L241.21,197H67.88A13.38,13.38,0,0,0,54.5,210.38v70.9H208.66q42,23.42,100.76,34.9,60.09,11.73,102.58,3.91,20-3.66,31-11.24,11.48-8.06,11.48-19.05Q454.5,265.4,405.9,239.49ZM300.78,225.66a20.72,20.72,0,0,1,20.74-20.74h54.75v7.43H321.52a12.67,12.67,0,0,0-9.36,3.9,12.84,12.84,0,0,0-3.9,9.41v25.11A13.33,13.33,0,0,0,321.52,264h54.75v7.43H321.52a20.72,20.72,0,0,1-20.74-20.7Zm-163.3,25.11a20.71,20.71,0,0,1-20.74,20.7H62V217a12.05,12.05,0,0,1,12.09-12.09h42.65a20.71,20.71,0,0,1,20.74,20.74Zm71.38-38.42H157.74a4.44,4.44,0,0,0-3.25,1.36,4.49,4.49,0,0,0-1.36,3.3v16.32h55.73v7.47H153.13V264h55.73v7.43H145.7V217a12.05,12.05,0,0,1,12-12.09h51.12Zm15.7,59.12h-7.48V216.54a11.08,11.08,0,0,1,3.53-8.09,11.71,11.71,0,0,1,8.56-3.53h42.65q9.6,0,15.34,6.07a16.45,16.45,0,0,1,5.22,12.41q0,9.4-8.52,14.91a19.75,19.75,0,0,1,8.7,16.89v16.27h-7.47V255.2a13.33,13.33,0,0,0-13.27-13.31H224.56Z"/></g></g></svg>