<svg xmlns="http://www.w3.org/2000/svg" viewBox="0 0 500 500"><defs><style>.cls-1{fill:#fff;}</style></defs><g id="Layer_2" data-name="Layer 2"><g id="Layer_1-2" data-name="Layer 1"><rect width="500" height="500"/><path class="cls-1" d="M81.1,116.35a17.85,17.85,0,0,1,0,24.86,17.6,17.6,0,0,1-12.42,5,18,18,0,0,1-12.77-5,17.85,17.85,0,0,1,0-24.86A17.45,17.45,0,0,1,68.68,111,17.05,17.05,0,0,1,81.1,116.35ZM461,302.43q0,15.12-15.79,26.2-15.1,10.41-42.66,15.45-58.44,10.77-141.07-5.37T120.4,289.33Q62,256.08,62,224.84,62,206,85.14,194.28q22.49-11.42,61.8-14.45a46.73,46.73,0,0,0-8.4,15.46q-47.7,9.41-47.69,35.26,0,26.54,50,55.09Q190.6,314.19,261.48,328q70.53,13.79,120.59,4.7,23.83-4.35,36.61-13.43,13.43-9.39,13.43-22.51,0-22.17-36.61-46.69.67-6-1.34-16.79Q461,268.84,461,302.43ZM96.22,333.33a17.07,17.07,0,0,1,0,24.86,17.07,17.07,0,0,1-24.86,0,17.07,17.07,0,0,1,0-24.86,17.07,17.07,0,0,1,24.86,0ZM149,99.22a8.07,8.07,0,1,1-11.43,0,7.42,7.42,0,0,1,11.43,0Zm114.53,31.91h3l1,.34h5l1,.33h3a12.21,12.21,0,0,0,3,.34l1,.33h2l1,.34a6.43,6.43,0,0,1,2,.34h1a10.44,10.44,0,0,0,2,.67h.67c1.12.22,2.13.45,3,.67h.34c.89.22,1.68.45,2.35.67l1,.34a5.54,5.54,0,0,0,1.68.33l1.34.34a13.3,13.3,0,0,0,1.68.67l1,.34a5.1,5.1,0,0,1,2,.67h.67a12.82,12.82,0,0,0,2.69,1l1,.33a15,15,0,0,1,1.68.67l1,.34a12.18,12.18,0,0,0,1.68.67l1,.67a10.84,10.84,0,0,0,1.68.67l1,.34a24.27,24.27,0,0,1,2.35,1.34l1,.34a13.3,13.3,0,0,0,1.68.67l1,.67,1.34.68,1.34.67a3.59,3.59,0,0,0,1.35.67c.44.45.78.67,1,.67a15.1,15.1,0,0,1,1.68,1l1,.67,2,1.34,1,.68,1.35.67,1,.67,1.34,1,1,.67a10.25,10.25,0,0,0,1.34,1l1,.67a13.56,13.56,0,0,1,2,1.68l1,.67c.67.45,1,.79,1,1,.22.22.55.56,1,1l1.34.68,1,1c.22.23.55.56,1,1l1,1c.22,0,.56.22,1,.67l2,2,.67.67,1.34,1.34.67.67c.45.46.89.9,1.35,1.35l.67.67a9.4,9.4,0,0,0,1,1.34l.67.67a15.94,15.94,0,0,1,2.35,3l.34.33c.21.23.67.68,1.34,1.35l.34.67,1.34,1.34.33.67a9.86,9.86,0,0,0,1,1.35l.67,1a10.25,10.25,0,0,0,1,1.34l.34.67c.89,1.13,1.68,2.13,2.35,3l.33.68a15.11,15.11,0,0,0,1,1.67l.34.68a5.36,5.36,0,0,1,1,1.34l.33.67a15.1,15.1,0,0,1,1,1.68l.34.67a47.57,47.57,0,0,1,3,5.71l.33.68a4.08,4.08,0,0,0,1,1.67V205a8.24,8.24,0,0,1,1,2l.34.33c.89,2.24,1.68,4.37,2.35,6.39l.33.33c.22.67.45,1.34.67,2l.34.67.67,2v.68c1.12,3.35,2.13,6.94,3,10.74q1.34,7.06,2.68,16.46c.22,2.91.45,5.94.67,9.07v5.38l-.33,1v6.39l-.34.33A122.43,122.43,0,0,1,374,322.58q-46.68,6.74-110.51-5.71-68.85-13.41-117.22-41-4.71-2.7-9.74-6c-.23-3.81-.34-7.5-.34-11.09A127.74,127.74,0,0,1,148.28,204a8.12,8.12,0,0,0,1-2,8.24,8.24,0,0,1,1-2q1.68-3.36,3.69-6.72l.34-.67q5.37-10.08,9.4-13.44c2-2.23,4-4.48,6.05-6.72l.34-.33a5.85,5.85,0,0,1,1.68-1.68l.33-.67,1-1,.34-.34a5.81,5.81,0,0,0,1.67-1.68l.34-.33,1-1,.33-.33a10.73,10.73,0,0,0,1.68-1.35l.68-.67,1-.67.34-.34,1-1,1-1h.34l1-.67.33-.34,1-1,1.35-1,1-.67.34-.33,1-.68a5.13,5.13,0,0,1,1.34-1l1-.68.67-.33,1-.67.67-.67a4.18,4.18,0,0,0,1.68-1l.67-.34,1-.67.67-.34a4.28,4.28,0,0,1,1.68-1l.67-.34,1-.67,1-.67a12.18,12.18,0,0,1,1.68-.67l.67-.34,1-.67.67-.34a4.14,4.14,0,0,0,1.68-1l1-.33,1-.34,1-.67.67-.34a10.84,10.84,0,0,0,1.68-.67l1-.33,1-.34.67-.33,2-.68.68-.33,1-.34,1-.67a5.35,5.35,0,0,0,1.68-.34l.67-.33,1.35-.34.67-.33a5.6,5.6,0,0,1,1.68-.34l1-.34,1.35-.33.67-.34a5.59,5.59,0,0,1,1.68-.33l.67-.34a3.81,3.81,0,0,1,1.68-.34l.67-.33a3.67,3.67,0,0,0,1.68-.34h.67a6.52,6.52,0,0,1,2-.33l.33-.34a3.78,3.78,0,0,0,1.68-.33h.68a6.43,6.43,0,0,0,2-.34H244a5.65,5.65,0,0,1,1.68-.34h.67a6.52,6.52,0,0,1,2-.33h.67a3.81,3.81,0,0,1,1.68-.34h.34a7.58,7.58,0,0,0,2.35-.33h5.37a4.75,4.75,0,0,1,2-.34h2.68Zm-100.09,218a11,11,0,0,1,3.36,8.06,11.5,11.5,0,0,1-11.09,11.09,11,11,0,0,1-8.06-3.36,9.92,9.92,0,0,1-3.36-7.73,11,11,0,0,1,3.36-8.06,11.6,11.6,0,0,1,8.06-3A10.45,10.45,0,0,1,163.4,349.12Zm96.06.67Q199.34,338,150,316.54a127.89,127.89,0,0,0,191.8,43A527.17,527.17,0,0,1,259.46,349.79Zm-38.62,44.34c0,3.82-1.91,5.71-5.71,5.71s-5.71-1.89-5.71-5.71c0-3.57,1.89-5.37,5.71-5.37S220.84,390.56,220.84,394.13ZM233.26,96.87a8.08,8.08,0,0,1-11.42,11.42,7.42,7.42,0,0,1,0-11.42,7.41,7.41,0,0,1,11.42,0Z"/></g></g></svg>